{"asset":{"version":"2.0","generator":"VECTARY"},"nodes":[{"translation":[-0.0023864480869684552,3.552713678800501e-18,-0.01918240000177991],"scale":[0.001,0.001,0.001],"rotation":[-0.519578862232536,-0.479622566109168,-0.47962256610916804,0.5195788622325361],"name":"3D Text - V - baked","mesh":0},{"translation":[0,0,0],"scale":[0.001,0.001,0.001],"rotation":[-0.7071067811865475,0,0,0.7071067811865476],"name":"Buffer Layer"},{"translation":[-0.20922798249852695,0.018437500803856758,0.019787505422578053],"scale":[1,1,1],"rotation":[-7.960609255119877e-11,-0.6684113760901158,-7.153834816198135e-11,0.743791793658224],"name":"Camera","camera":0}],"materials":[{"pbrMetallicRoughness":{"baseColorFactor":[0.7518950805830509,0.2631747163984916,0.2631747163984916,1],"metallicFactor":0,"roughnessFactor":0.2},"name":"3D Text material","emissiveFactor":[0,0,0],"alphaMode":"OPAQUE","doubleSided":false},{"pbrMetallicRoughness":{"baseColorFactor":[0.6120655998656237,0.6120655998656237,0.6120655998656237,1],"metallicFactor":0,"roughnessFactor":0.2},"name":"Buffer Layer material","emissiveFactor":[0,0,0],"alphaMode":"OPAQUE","doubleSided":false}],"meshes":[{"primitives":[{"mode":4,"attributes":{"POSITION":1,"NORMAL":2},"material":0,"indices":0}]}],"accessors":[{"bufferView":0,"byteOffset":0,"componentType":5125,"count":96,"type":"SCALAR"},{"bufferView":1,"byteOffset":0,"componentType":5126,"count":50,"max":[33.28529357910156,2.274781518750782e-15,37.150001525878906],"min":[0.42500001192092896,-8.941756248474121,-0.2750000059604645],"type":"VEC3"},{"bufferView":2,"byteOffset":0,"componentType":5126,"count":50,"type":"VEC3"}],"bufferViews":[{"buffer":0,"byteOffset":0,"byteLength":384,"target":34963},{"buffer":0,"byteOffset":384,"byteLength":600,"target":34962},{"buffer":0,"byteOffset":984,"byteLength":600,"target":34962}],"cameras":[{"name":"Camera","type":"perspective","extras":{"targetDistance":0.20489505085802673},"perspective":{"aspectRatio":1.5087108013937283,"yfov":0.6108652381980153,"zfar":27.748786811286145,"znear":0.0017952702253688413}}],"scene":0,"scenes":[{"nodes":[0,1,2],"name":"Project Name"}],"extensionsUsed":["KHR_texture_transform"],"buffers":[{"byteLength":1584,"uri":"ProjectName.bin"}]}